<svg width="1695" height="472" viewBox="0 0 1695 472" fill="none" xmlns="http://www.w3.org/2000/svg">
<path d="M171.5 461C168.167 464.333 164 466.333 159 467C138.667 469.667 107.667 471 66 471L7.5 470C2.5 469.667 -7.59959e-07 467.333 -7.59959e-07 463L0.999999 458C5.66667 446.667 12.3333 431.167 21 411.5C30 391.833 48.6667 355.667 77 303C105.333 250 134.333 201.667 164 158C194.333 114 214.167 88.3333 223.5 81C227.833 77.3333 231.833 75.5 235.5 75.5C238.167 75.5 239.5 77 239.5 80C239.5 85.3333 235 97.1667 226 115.5C217 133.833 209.167 148.667 202.5 160C124.833 300 76.5 395 57.5 445C57.1667 446 57 447 57 448C57 453.667 62.8333 456.5 74.5 456.5C97.1667 456.5 118.167 449.167 137.5 434.5C166.167 411.5 191.833 385.333 214.5 356C217.167 353.333 219.833 352 222.5 352C225.167 352 226.5 353.667 226.5 357C226.5 360.333 224.667 366.167 221 374.5C199.333 421.5 182.833 450.333 171.5 461ZM366.52 376.5L382.02 350C382.02 349 381.686 348.5 381.02 348.5C380.353 348.5 379.52 349 378.52 350C366.186 364.333 353.353 378.333 340.02 392C326.686 405.333 316.52 415.167 309.52 421.5L298.52 431C272.52 455.667 254.52 468 244.52 468C239.853 468 237.52 465 237.52 459C237.52 452.333 240.353 442.167 246.02 428.5C251.353 414.833 256.853 402.667 262.52 392L270.52 376.5C298.52 324.167 319.186 289.167 332.52 271.5C339.186 262.833 347.353 255.667 357.02 250C366.686 244 374.186 241 379.52 241C382.853 241 384.52 242.167 384.52 244.5C384.52 245.833 383.853 247.667 382.52 250C381.853 251.333 375.02 262.5 362.02 283.5C349.02 304.167 338.52 322 330.52 337C308.52 377.333 297.52 400.5 297.52 406.5C297.52 408.833 298.52 410 300.52 410C303.52 410 308.686 407 316.02 401C337.686 382.333 361.52 357.167 387.52 325.5C401.853 310.167 416.853 290.167 432.52 265.5C443.186 249.167 457.353 241 475.02 241C478.02 241 479.52 242.333 479.52 245L475.52 254.5C470.853 262.833 460.353 281.167 444.02 309.5C428.02 337.5 418.853 353.5 416.52 357.5C402.853 381.5 396.02 397.333 396.02 405C396.02 408 397.02 409.5 399.02 409.5C402.353 409.5 413.02 401.167 431.02 384.5C445.02 370.5 463.52 350.333 486.52 324C487.52 323 488.353 322.5 489.02 322.5C489.686 322.5 490.02 323.167 490.02 324.5C490.02 330.833 487.52 337 482.52 343C457.853 370.333 436.02 393.167 417.02 411.5C404.02 423.833 389.353 436.167 373.02 448.5C357.02 460.833 345.353 467 338.02 467C333.02 467 330.52 463.5 330.52 456.5C330.52 452.5 333.52 443.833 339.52 430.5C345.52 417.167 351.52 404.833 357.52 393.5L366.52 376.5ZM751.066 384.5C765.066 370.5 783.566 350.333 806.566 324C807.566 323 808.4 322.5 809.066 322.5C809.733 322.5 810.066 323.167 810.066 324.5C810.066 330.833 807.566 337 802.566 343C777.9 370.333 756.066 393.167 737.066 411.5C697.733 448.167 671.9 466.5 659.566 466.5C654.233 466.5 651.566 463.333 651.566 457C651.566 450.667 654.9 440.167 661.566 425.5C668.566 410.833 675.4 397.5 682.066 385.5C689.066 373.5 697.733 358.833 708.066 341.5C718.733 324.167 724.4 314.833 725.066 313.5C731.066 303.833 734.066 297.667 734.066 295C734.066 293.333 733.233 292.5 731.566 292.5L724.566 295C709.233 306 690.9 323.167 669.566 346.5C648.233 369.5 630.733 389.667 617.066 407L596.566 433.5C581.233 455.5 566.233 466.5 551.566 466.5C547.233 466.5 545.066 465.167 545.066 462.5C545.066 459.5 548.233 451.667 554.566 439C560.9 426 567.233 413.833 573.566 402.5L583.066 385.5C585.4 380.833 591.066 370.833 600.066 355.5C609.4 339.833 617.066 326.5 623.066 315.5C629.4 304.167 632.566 297.167 632.566 294.5C632.566 292.833 631.9 292 630.566 292L623.566 295C607.9 306 589.4 323.167 568.066 346.5C546.733 369.5 529.4 389.667 516.066 407L495.566 433.5C479.9 455.167 464.9 466 450.566 466C446.233 466 444.066 464.833 444.066 462.5C444.066 459.5 447.233 451.667 453.566 439C459.9 426 466.233 413.833 472.566 402.5L482.066 385.5L530.566 299.5C538.566 284.5 548.233 271.167 559.566 259.5C570.9 247.5 582.733 241.5 595.066 241.5C597.733 241.5 599.066 242.667 599.066 245C599.066 247 597.066 251.333 593.066 258C589.4 264.333 583.9 273.333 576.566 285C569.566 296.333 563.566 306.833 558.566 316.5C555.566 322.167 551.9 328.667 547.566 336C543.566 343 540.233 349 537.566 354C534.9 358.667 533.066 362 532.066 364C531.066 366 530.566 367.5 530.566 368.5C530.566 369.167 530.9 369.5 531.566 369.5C532.566 369.5 534.233 368.333 536.566 366C542.9 358.667 551.066 349.5 561.066 338.5C571.4 327.5 588.733 311 613.066 289C637.4 266.667 657.4 251.667 673.066 244C676.4 242.333 679.733 241.5 683.066 241.5C687.733 241.5 690.066 243.833 690.066 248.5C690.066 257.167 680.233 279.667 660.566 316C658.9 319 655.4 324.833 650.066 333.5C645.066 342.167 640.733 349.667 637.066 356C633.733 362.333 632.066 366.333 632.066 368C632.066 369 632.4 369.5 633.066 369.5C634.066 369.5 635.733 368.333 638.066 366C644.4 358.667 652.566 349.5 662.566 338.5C672.9 327.5 690.066 311 714.066 289C738.4 266.667 758.4 251.667 774.066 244C778.066 242.333 781.566 241.5 784.566 241.5C789.566 241.5 792.066 243.833 792.066 248.5C792.066 249.833 791.4 252.833 790.066 257.5C788.733 261.833 784.9 271 778.566 285C772.233 298.667 763.9 313.833 753.566 330.5C728.233 369.5 715.566 394 715.566 404C715.566 407 716.566 408.5 718.566 408.5C724.233 408.5 735.066 400.5 751.066 384.5ZM805.605 469C799.939 469 794.605 468.5 789.605 467.5C784.605 466.5 780.939 465.667 778.605 465L775.105 463.5C772.772 462.833 771.605 461.5 771.605 459.5L772.605 456.5C799.939 391.167 837.272 317.667 884.605 236C885.272 234.667 891.105 224.5 902.105 205.5C913.105 186.5 920.105 174.5 923.105 169.5C926.105 164.167 932.605 153.333 942.605 137C952.605 120.333 960.439 107.667 966.105 99C971.772 90 978.939 79 987.605 66C996.272 53 1004.61 41.3333 1012.61 31C1022.94 18 1030.11 11.5 1034.11 11.5C1035.77 11.5 1036.61 12.8333 1036.61 15.5C1036.61 21.5 1030.94 35.6666 1019.61 58C1002.94 93.3333 983.605 130 961.605 168C917.939 244 890.605 292 879.605 312V314C879.605 315.667 879.939 316.5 880.605 316.5C880.939 316.5 881.939 315.667 883.605 314C887.939 308.333 893.605 301.333 900.605 293C907.939 284.667 919.939 273.5 936.605 259.5C953.272 245.5 966.772 238.5 977.105 238.5C985.439 238.5 989.605 245 989.605 258C989.605 278.333 982.772 302.167 969.105 329.5C961.105 345.5 951.605 361.333 940.605 377C929.605 392.333 917.105 407.167 903.105 421.5C889.105 435.5 873.605 447 856.605 456C839.605 464.667 822.605 469 805.605 469ZM938.105 304C942.105 294.333 944.105 287.167 944.105 282.5C944.105 278.167 942.439 276 939.105 276C936.439 276 932.439 278 927.105 282C922.105 286 917.772 290 914.105 294L908.105 300C888.439 323 870.772 347.167 855.105 372.5C839.439 397.5 828.772 416.833 823.105 430.5L814.105 451C813.439 452 813.105 453 813.105 454C813.105 455.667 815.605 456.5 820.605 456.5C835.272 456.5 853.605 442.833 875.605 415.5C897.605 387.833 918.439 350.667 938.105 304ZM1104.76 356.5C1102.1 356.5 1100.76 355.5 1100.76 353.5C1100.76 352.5 1101.26 351.167 1102.26 349.5C1121.93 318.833 1131.76 297.833 1131.76 286.5C1131.76 283.5 1130.6 282 1128.26 282C1118.26 282 1094.76 304.667 1057.76 350C1046.76 364 1036.43 378.5 1026.76 393.5C1017.43 408.5 1010.93 420 1007.26 428L1001.26 439.5C997.262 447.5 991.095 454.833 982.762 461.5C974.428 468.5 965.762 472 956.762 472C952.095 472 949.762 470.833 949.762 468.5C949.762 466.5 951.262 462.333 954.262 456C956.928 449.667 960.262 442.667 964.262 435C968.262 427.333 972.262 419.833 976.262 412.5C980.262 405.167 983.595 399 986.262 394L990.762 386.5L1043.26 295C1063.6 256.667 1084.93 237.5 1107.26 237.5C1110.26 237.5 1111.76 238.667 1111.76 241C1111.76 244 1104.43 256.5 1089.76 278.5C1075.43 300.167 1067.1 314 1064.76 320C1064.1 322 1063.76 323.167 1063.76 323.5C1063.76 324.167 1064.1 324.5 1064.76 324.5C1065.43 324.5 1066.6 323.667 1068.26 322C1093.26 293.667 1119.76 268.5 1147.76 246.5C1149.43 244.833 1153.1 242.5 1158.76 239.5C1164.43 236.167 1169.43 234.5 1173.76 234.5C1180.1 234.5 1183.26 240 1183.26 251C1183.26 263 1179.26 277.333 1171.26 294C1163.26 310.667 1152.43 325.333 1138.76 338L1136.76 340C1135.43 341 1133.93 342.167 1132.26 343.5C1130.93 344.5 1129.1 345.833 1126.76 347.5C1124.43 349.167 1122.1 350.667 1119.76 352C1117.43 353 1114.93 354 1112.26 355C1109.6 356 1107.1 356.5 1104.76 356.5ZM1292.76 290.5C1296.76 282.167 1298.76 274.833 1298.76 268.5C1298.76 263.167 1297.09 260.5 1293.76 260.5C1291.76 260.5 1289.42 261.167 1286.76 262.5C1284.42 263.5 1282.59 264.667 1281.26 266L1278.76 268C1268.42 277 1255.42 293.5 1239.76 317.5C1224.42 341.167 1216.76 356.333 1216.76 363C1216.76 364.333 1217.09 365 1217.76 365C1219.76 365 1224.09 363.333 1230.76 360C1237.76 356.667 1247.59 348.833 1260.26 336.5C1273.26 324.167 1284.09 308.833 1292.76 290.5ZM1270.26 405C1287.92 388.667 1313.26 361.667 1346.26 324C1347.26 323 1348.09 322.5 1348.76 322.5C1349.42 322.5 1349.76 323.167 1349.76 324.5C1349.76 330.833 1347.26 337 1342.26 343C1317.59 370.333 1295.76 393.167 1276.76 411.5C1262.76 425.5 1246.09 439 1226.76 452C1207.42 464.667 1191.42 471 1178.76 471C1163.42 471 1155.76 460.333 1155.76 439C1155.76 403.667 1168.76 366.667 1194.76 328C1221.09 289.333 1251.42 263.167 1285.76 249.5C1300.09 243.5 1313.09 240.5 1324.76 240.5C1337.76 240.5 1344.26 245.667 1344.26 256C1344.26 275.333 1330.59 297.5 1303.26 322.5C1275.92 347.5 1245.26 366.5 1211.26 379.5C1209.92 379.833 1208.76 381 1207.76 383C1202.76 396.667 1200.26 408.833 1200.26 419.5C1200.26 431.5 1204.76 437.5 1213.76 437.5C1228.09 437.5 1246.92 426.667 1270.26 405ZM1474.31 216.5C1497.98 199.833 1519.15 181 1537.81 160C1556.81 138.667 1571.15 119.167 1580.81 101.5C1590.81 83.5 1598.31 68 1603.31 55C1608.31 42 1610.81 32.6666 1610.81 27C1610.81 23.6666 1609.65 22 1607.31 22C1602.65 22 1596.98 25.3333 1590.31 32C1577.65 44.6666 1563.31 63 1547.31 87C1531.31 111 1518.31 131.667 1508.31 149C1498.65 166 1485.98 188.833 1470.31 217.5C1471.65 217.5 1472.98 217.167 1474.31 216.5ZM1420.81 384.5C1434.81 370.5 1453.31 350.333 1476.31 324C1477.31 323 1478.15 322.5 1478.81 322.5C1479.48 322.5 1479.81 323.167 1479.81 324.5C1479.81 330.833 1477.31 337 1472.31 343C1447.65 370.333 1425.81 393.167 1406.81 411.5C1365.15 450.833 1338.65 470.5 1327.31 470.5C1322.31 470.5 1319.81 467 1319.81 460C1319.81 456.333 1320.31 452.333 1321.31 448C1321.98 443.667 1323.31 439 1325.31 434C1327.31 428.667 1328.98 424.333 1330.31 421C1331.98 417.333 1334.15 412.333 1336.81 406C1339.81 399.333 1341.81 394.833 1342.81 392.5C1352.15 371.5 1380.81 316.167 1428.81 226.5C1494.48 106.833 1554.81 33.3333 1609.81 5.99997C1617.81 1.99999 1625.81 -8.34465e-06 1633.81 -8.34465e-06C1643.15 -8.34465e-06 1647.81 4.33332 1647.81 13C1647.81 33 1640.98 55 1627.31 79C1613.65 102.667 1596.98 124.5 1577.31 144.5C1557.65 164.5 1538.31 182 1519.31 197C1500.65 212 1484.48 223.333 1470.81 231C1468.81 231.667 1466.98 233.167 1465.31 235.5C1450.65 259.167 1436.31 284.667 1422.31 312C1408.31 339 1397.81 360.333 1390.81 376L1380.81 399C1379.15 404 1378.31 407.333 1378.31 409C1378.31 412 1379.48 413.5 1381.81 413.5C1388.48 413.5 1401.48 403.833 1420.81 384.5ZM1604.41 428.5C1576.74 453.833 1557.74 466.5 1547.41 466.5C1542.74 466.5 1540.41 463.833 1540.41 458.5C1540.41 451.833 1543.24 441.667 1548.91 428C1554.91 414.333 1560.91 402.333 1566.91 392L1575.91 376.5C1577.24 374.167 1577.91 372.667 1577.91 372C1577.91 371.333 1577.58 371 1576.91 371C1575.58 371 1573.08 372.833 1569.41 376.5C1559.41 387.5 1547.91 399.333 1534.91 412C1522.24 424.333 1511.91 434 1503.91 441L1492.41 451C1479.41 461 1469.41 466 1462.41 466C1455.08 466 1451.41 460.333 1451.41 449C1451.41 443.333 1453.08 434.667 1456.41 423C1459.41 411.333 1461.74 403.5 1463.41 399.5C1471.08 380.833 1480.58 362.667 1491.91 345C1503.58 327.333 1517.24 310.5 1532.91 294.5C1548.58 278.167 1566.74 265 1587.41 255C1608.41 245 1630.08 240 1652.41 240C1671.08 240 1680.41 242.833 1680.41 248.5C1680.41 251.833 1676.24 253.5 1667.91 253.5C1637.24 253.5 1608.41 266.667 1581.41 293C1554.74 319 1533.08 349 1516.41 383C1511.74 392.333 1509.41 400.167 1509.41 406.5C1509.41 410.167 1510.58 412 1512.91 412C1516.91 412 1522.08 409.167 1528.41 403.5C1532.41 399.833 1537.74 395 1544.41 389C1551.41 383 1562.58 371.5 1577.91 354.5C1593.24 337.5 1605.41 321.667 1614.41 307C1615.74 304.333 1617.74 301.167 1620.41 297.5C1623.41 293.833 1628.91 289 1636.91 283C1644.91 276.667 1652.91 273.5 1660.91 273.5C1665.24 273.5 1667.41 274.667 1667.41 277C1667.41 277.667 1666.91 278.833 1665.91 280.5C1664.58 283.167 1660.74 289.833 1654.41 300.5C1648.41 311.167 1642.74 321.333 1637.41 331C1632.08 340.333 1626.41 350.667 1620.41 362C1614.41 373 1609.58 382.5 1605.91 390.5C1602.58 398.5 1600.91 403.833 1600.91 406.5C1600.91 408.5 1601.74 409.5 1603.41 409.5C1608.41 409.5 1620.58 399.833 1639.91 380.5C1654.58 365.167 1671.74 346.333 1691.41 324C1692.41 323 1693.24 322.5 1693.91 322.5C1694.58 322.5 1694.91 323.167 1694.91 324.5C1694.91 330.833 1692.41 337 1687.41 343C1654.74 379.333 1627.08 407.833 1604.41 428.5Z" fill="white"/>
</svg>
